<?xml version="1.0" encoding="UTF-8"?>
<svg version="1.1" xmlns="http://www.w3.org/2000/svg" width="1722" height="298">
<path d="M0 0 C568.26 0 1136.52 0 1722 0 C1722 98.34 1722 196.68 1722 298 C1153.74 298 585.48 298 0 298 C0 199.66 0 101.32 0 0 Z " fill="#111111" transform="translate(0,0)"/>
<path d="M0 0 C0.77916779 -0.0066568 1.55833557 -0.0133136 2.3611145 -0.02017212 C4.00683234 -0.03027991 5.652591 -0.03498972 7.29833984 -0.03466797 C9.80505573 -0.03903592 12.31000228 -0.07535767 14.81640625 -0.11328125 C16.41926485 -0.11915106 18.02213176 -0.12311935 19.625 -0.125 C20.74091019 -0.14655655 20.74091019 -0.14655655 21.87936401 -0.16854858 C28.55138511 -0.11051119 32.55934869 2.67919148 37.12109375 7.28125 C37.63865234 7.80074219 38.15621094 8.32023437 38.68945312 8.85546875 C39.20701172 9.38527344 39.72457031 9.91507813 40.2578125 10.4609375 C41.0631543 11.26724609 41.0631543 11.26724609 41.88476562 12.08984375 C46.53098958 16.78879912 47.07462845 18.74458967 47.16992188 25.32080078 C47.18700699 26.39924004 47.18700699 26.39924004 47.20443726 27.49946594 C47.31518523 35.02937596 47.36253999 42.56026735 47.40527344 50.09082031 C47.42752243 53.66064713 47.46924887 57.22942416 47.52832031 60.79882812 C47.59957579 65.11307654 47.63613002 69.42633946 47.64839172 73.74114609 C47.65876627 75.38139713 47.68112891 77.02161996 47.71598816 78.66153336 C48.00688851 93.09696684 48.00688851 93.09696684 43.54370117 98.25195312 C42.37381734 99.31348802 41.17725017 100.34709267 39.9453125 101.3359375 C39.18863281 102.14804688 38.43195313 102.96015625 37.65234375 103.796875 C37.02714844 104.42851562 36.40195313 105.06015625 35.7578125 105.7109375 C35.12488281 106.35804688 34.49195313 107.00515625 33.83984375 107.671875 C29.48075007 111.50068719 25.39118462 111.69125507 19.7421875 111.77734375 C18.54725677 111.79800148 18.54725677 111.79800148 17.32818604 111.81907654 C15.64382836 111.84231538 13.95937941 111.85959769 12.27490234 111.87133789 C9.7166856 111.89821297 7.1626409 111.97312399 4.60546875 112.04882812 C-9.11187517 112.26966853 -9.11187517 112.26966853 -13.921875 108.09375 C-15.00262649 106.87248222 -16.05180034 105.62191422 -17.0546875 104.3359375 C-17.93898438 103.50707031 -18.82328125 102.67820312 -19.734375 101.82421875 C-20.45882812 101.10621094 -21.18328125 100.38820313 -21.9296875 99.6484375 C-23.03957031 98.55982422 -23.03957031 98.55982422 -24.171875 97.44921875 C-27.9228466 93.23910332 -28.31052385 90.07625136 -28.34521484 84.45947266 C-28.35529068 83.43429787 -28.35529068 83.43429787 -28.36557007 82.38841248 C-28.38453429 80.13386725 -28.38847344 77.87961998 -28.390625 75.625 C-28.39705415 74.05325194 -28.4037826 72.48150508 -28.41079712 70.90975952 C-28.422766 67.61624376 -28.42647836 64.32283285 -28.42529297 61.02929688 C-28.42508982 56.81699579 -28.45238838 52.60536972 -28.48683739 48.39322853 C-28.50911782 45.14691097 -28.51313017 41.90075554 -28.51207352 38.65436935 C-28.51442789 37.10187835 -28.52324231 35.54938277 -28.53873825 33.99696732 C-28.55842228 31.82123331 -28.55255243 29.64695076 -28.54052734 27.47119141 C-28.5448024 25.61731308 -28.5448024 25.61731308 -28.54916382 23.72598267 C-27.78610419 18.49457624 -24.83831918 14.87203064 -21.1796875 11.1953125 C-20.66921875 10.68226562 -20.15875 10.16921875 -19.6328125 9.640625 C-19.11203125 9.12757812 -18.59125 8.61453125 -18.0546875 8.0859375 C-17.53390625 7.55742188 -17.013125 7.02890625 -16.4765625 6.484375 C-11.04569641 1.08093753 -7.57418162 0.02253705 0 0 Z " fill="#FAFAFA" transform="translate(1043.0546875,86.6640625)"/>
<path d="M0 0 C6.93 0 13.86 0 21 0 C24.85145474 13.60659922 28.36534991 27.27071513 31.75 41 C32.72125615 44.93817476 33.69564434 48.87555583 34.671875 52.8125 C34.89164001 53.70815674 35.11140503 54.60381348 35.33782959 55.52661133 C35.54184387 56.3492749 35.74585815 57.17193848 35.95605469 58.01953125 C36.13416687 58.74245361 36.31227905 59.46537598 36.49578857 60.21020508 C36.96245933 62.08152328 36.96245933 62.08152328 38 64 C38.36762451 63.00258789 38.73524902 62.00517578 39.11401367 60.97753906 C40.49999205 57.21927729 41.88930322 53.46225441 43.27954102 49.70556641 C43.87678191 48.09033411 44.47316054 46.47478267 45.06860352 44.85888672 C47.02053376 39.56290104 48.99704405 34.27689627 51 29 C51.46229004 27.77474609 51.92458008 26.54949219 52.40087891 25.28710938 C52.82159668 24.21783203 53.24231445 23.14855469 53.67578125 22.046875 C54.03196533 21.13260742 54.38814941 20.21833984 54.75512695 19.27636719 C56.16900605 16.69095658 57.49804654 15.52246138 60 14 C62.18359375 13.56640625 62.18359375 13.56640625 64.4375 13.5625 C65.17871094 13.54316406 65.91992188 13.52382812 66.68359375 13.50390625 C70.11515729 14.23882795 71.49048784 15.49962186 74 18 C75.70965635 21.28408497 76.92847834 24.71630222 78.171875 28.19921875 C78.72370453 29.68540459 78.72370453 29.68540459 79.28668213 31.20161438 C80.45566754 34.35843799 81.60341084 37.52248124 82.75 40.6875 C83.91520823 43.86148116 85.08466595 47.03385631 86.25616455 50.20552063 C86.98308009 52.17809592 87.70548442 54.15234038 88.42303467 56.12834167 C88.90924286 57.46026299 88.90924286 57.46026299 89.40527344 58.8190918 C89.68997498 59.60422653 89.97467651 60.38936127 90.26800537 61.19828796 C90.85952917 62.98917933 90.85952917 62.98917933 92 64 C97.28 42.88 102.56 21.76 108 0 C114.93 0 121.86 0 129 0 C127.87484271 9.00125832 127.87484271 9.00125832 127.0022583 12.56619263 C126.80616974 13.37627777 126.61008118 14.18636292 126.40805054 15.02099609 C126.19508331 15.88047852 125.98211609 16.73996094 125.76269531 17.62548828 C125.53649506 18.55336151 125.3102948 19.48123474 125.07723999 20.43722534 C124.33286521 23.48292446 123.58123629 26.52676259 122.828125 29.5703125 C122.57050133 30.614613 122.31287766 31.6589135 122.0474472 32.73485947 C120.68542228 38.25442856 119.31769123 43.77254734 117.9453125 49.28955078 C116.53102499 54.97988476 115.13653808 60.67487871 113.74647903 66.37117195 C112.67137289 70.76115762 111.58159573 75.14740564 110.48781586 79.53277206 C109.96722371 81.63091516 109.45215586 83.73043712 108.94278717 85.83133316 C108.2289891 88.76942929 107.49451871 91.70161876 106.75488281 94.63330078 C106.55001251 95.49683167 106.34514221 96.36036255 106.13406372 97.25006104 C104.73460003 102.67902321 102.98160471 106.01313239 99 110 C96.71875 110.9453125 96.71875 110.9453125 94.5 111.125 C93.7678125 111.21007812 93.035625 111.29515625 92.28125 111.3828125 C88.98683995 110.82998342 87.43837036 109.24475893 85 107 C83.63945007 104.50689697 83.63945007 104.50689697 82.59643555 101.68066406 C82.19639816 100.61986633 81.79636078 99.5590686 81.38420105 98.46612549 C80.97253189 97.32746033 80.56086273 96.18879517 80.13671875 95.015625 C79.69987259 93.84489441 79.26302643 92.67416382 78.8129425 91.46795654 C77.65937564 88.36808086 76.51922566 85.2637057 75.38543701 82.15655518 C74.22322134 78.98172956 73.04348248 75.81343369 71.86523438 72.64453125 C69.56067684 66.43556105 67.27369663 60.22033292 65 54 C62.22058887 60.06744086 59.73075714 66.18852203 57.43359375 72.453125 C56.77680342 74.2239994 56.11989906 75.99483151 55.46289062 77.765625 C54.44520597 80.51886725 53.42914791 83.27269246 52.4152832 86.02734375 C51.42570557 88.71255801 50.43000468 91.3954403 49.43359375 94.078125 C49.13351913 94.89903625 48.83344452 95.71994751 48.52427673 96.56573486 C44.16571574 108.27365002 44.16571574 108.27365002 39 111 C35.0205911 111.50647022 32.78991797 111.43086435 29.25 109.5 C24.4260704 104.14007822 23.15355428 96.19273586 21.45629883 89.3269043 C21.10451317 87.92786613 21.10451317 87.92786613 20.74562073 86.50056458 C19.97810517 83.44292628 19.21738045 80.3836463 18.45703125 77.32421875 C17.92354241 75.19041844 17.38973942 73.05669664 16.8556366 70.92304993 C15.74069336 66.46465792 14.62902317 62.00546665 13.51977539 57.5456543 C12.09626833 51.8231498 10.6653957 46.10251802 9.23219776 40.38243389 C8.13064191 35.98315379 7.03254704 31.58301573 5.9355526 27.18259621 C5.40902771 25.07197568 4.88151528 22.96160126 4.35300636 20.85147667 C3.61704726 17.91054142 2.88564994 14.96850946 2.15551758 12.02612305 C1.93581299 11.15180634 1.7161084 10.27748962 1.48974609 9.37667847 C1.29214188 8.57635696 1.09453766 7.77603546 0.89094543 6.95146179 C0.71785764 6.25668071 0.54476984 5.56189962 0.36643696 4.84606457 C0 3 0 3 0 0 Z " fill="#FAFAFA" transform="translate(44,87)"/>
<path d="M0 0 C1.32 0.33 2.64 0.66 4 1 C4 15.85 4 30.7 4 46 C5.65 46 7.3 46 9 46 C11 48 11 48 11.22705078 51.71533203 C11.22673351 53.31286052 11.21539982 54.91041027 11.1953125 56.5078125 C11.1924826 57.34843231 11.18965271 58.18905212 11.18673706 59.05514526 C11.1755243 61.74524046 11.15041803 64.4350051 11.125 67.125 C11.1149716 68.94660978 11.10584551 70.76822477 11.09765625 72.58984375 C11.07558142 77.06002358 11.04104434 81.52995571 11 86 C11.56589844 86.13277344 12.13179687 86.26554687 12.71484375 86.40234375 C13.44832031 86.57894531 14.18179688 86.75554687 14.9375 86.9375 C15.66839844 87.11152344 16.39929688 87.28554687 17.15234375 87.46484375 C19 88 19 88 20 89 C20.09405142 90.9943173 20.11743249 92.99199543 20.11352539 94.98852539 C20.11341209 96.91040428 20.11341209 96.91040428 20.11329651 98.87110901 C20.10818909 100.27995848 20.10297309 101.68880756 20.09765625 103.09765625 C20.09579202 104.53112234 20.09436814 105.96458907 20.09336853 107.39805603 C20.08954372 111.17759957 20.07971377 114.9571049 20.06866455 118.7366333 C20.05844963 122.59069298 20.05387074 126.44475882 20.04882812 130.29882812 C20.03809146 137.86590287 20.02101549 145.43294609 20 153 C20.56589844 153.13277344 21.13179687 153.26554688 21.71484375 153.40234375 C22.44832031 153.57894531 23.18179688 153.75554687 23.9375 153.9375 C24.66839844 154.11152344 25.39929688 154.28554687 26.15234375 154.46484375 C28 155 28 155 29 156 C29.15971977 158.37338639 29.2592433 160.72118272 29.31640625 163.09765625 C29.33718735 163.80651474 29.35796844 164.51537323 29.37937927 165.24571228 C29.44494598 167.51787305 29.5037923 169.79015264 29.5625 172.0625 C29.60567849 173.59962183 29.64929255 175.1367315 29.69335938 176.67382812 C29.80063449 180.4490959 29.90188137 184.2244836 30 188 C50.25893549 177.29048977 62.30703264 163.09140968 69.1640625 141.30078125 C73.55336178 122.42794036 70.02435625 103.05238411 59.953125 86.78515625 C56.69054884 82.13272264 53.00980332 78.01702819 49 74 C48.45988281 73.44828125 47.91976562 72.8965625 47.36328125 72.328125 C41.75932307 67.07706091 34.69295397 63.65745335 28 60 C28 59.01 28 58.02 28 57 C38.42290005 57.23688409 47.43707166 64.67541156 54.6953125 71.57421875 C70.66691825 88.38501056 76.84118192 108.07399482 76.28515625 130.87890625 C76.03743995 136.62613175 75.08697951 141.63587597 73 147 C72.64808594 148.051875 72.29617188 149.10375 71.93359375 150.1875 C69.30230815 157.69057181 65.98445472 163.81726223 61 170 C60.33097656 170.83273438 59.66195312 171.66546875 58.97265625 172.5234375 C46.38799563 187.31553406 29.30073112 196.70085335 10 199 C-10.07029542 200.43605575 -29.10323552 196.07671423 -44.8515625 182.93359375 C-59.2166725 170.00499475 -70.41254181 153.77900111 -72.28710938 133.96533203 C-72.40036383 130.82550118 -72.40984153 127.70404458 -72.375 124.5625 C-72.38660156 123.52029297 -72.39820313 122.47808594 -72.41015625 121.40429688 C-72.37096155 110.86745403 -70.19512649 101.22561053 -65.3125 91.875 C-64.96582275 91.19832275 -64.61914551 90.52164551 -64.26196289 89.82446289 C-61.16534173 83.96721759 -57.46859108 78.89808757 -53 74 C-52.48308594 73.3915625 -51.96617187 72.783125 -51.43359375 72.15625 C-47.75986323 68.10501835 -43.49232474 65.15579274 -38.9375 62.1875 C-38.34759277 61.80198975 -37.75768555 61.41647949 -37.14990234 61.01928711 C-33.54716594 58.74882833 -30.08940791 57.17640501 -26 56 C-25.505 57.98 -25.505 57.98 -25 60 C-26.05058594 60.6290625 -27.10117187 61.258125 -28.18359375 61.90625 C-47.55456743 73.64931137 -60.32411131 87.60062205 -66.3125 110.08203125 C-69.68419153 129.29684151 -65.60274867 148.16773119 -55.0625 164.5 C-46.63816562 176.39598824 -34.92388921 185.3587036 -21 190 C-21 169.21 -21 148.42 -21 127 C-14.25 124.75 -14.25 124.75 -10 125 C-10.00888245 124.26972595 -10.01776489 123.5394519 -10.0269165 122.78704834 C-10.10710091 115.90122939 -10.16798393 109.01548032 -10.20724869 102.12931442 C-10.22811412 98.58909928 -10.25641126 95.04927026 -10.30175781 91.50927734 C-10.35357738 87.43843909 -10.37295369 83.36800573 -10.390625 79.296875 C-10.41127014 78.02696716 -10.43191528 76.75705933 -10.45318604 75.44866943 C-10.45348816 74.26774719 -10.45379028 73.08682495 -10.45410156 71.87011719 C-10.46298401 70.83087097 -10.47186646 69.79162476 -10.48101807 68.72088623 C-9.86423191 65.23202569 -8.8643633 64.0479857 -6 62 C-3.25 61.75 -3.25 61.75 -1 62 C-1.00222061 61.23800797 -1.00444122 60.47601593 -1.00672913 59.69093323 C-1.02673157 52.52448288 -1.04197388 45.35804599 -1.05181217 38.19157505 C-1.05704008 34.50685502 -1.06413605 30.82215797 -1.07543945 27.13745117 C-1.08627162 23.58429169 -1.09227753 20.03115437 -1.09487724 16.47797966 C-1.0967309 15.11954334 -1.10035038 13.76110829 -1.10573006 12.40268135 C-1.11294475 10.50617777 -1.11340809 8.60965207 -1.11352539 6.71313477 C-1.115746 5.63169693 -1.11796661 4.55025909 -1.12025452 3.43605042 C-1 1 -1 1 0 0 Z " fill="#EDEDED" transform="translate(760,42)"/>
<path d="M0 0 C3.24378587 2.05725502 6.1895005 4.3026561 9.05859375 6.84375 C9.58710937 7.27107422 10.115625 7.69839844 10.66015625 8.13867188 C13.71885766 10.85191081 15.11518495 13.04414071 15.84082031 17.08740234 C16.00072449 17.97667923 16.16062866 18.86595612 16.32537842 19.78218079 C17.25713122 25.56509152 18.09475383 31.35870548 18.90234375 37.16015625 C19.09627669 38.54006204 19.29041344 39.91993919 19.48474121 41.29978943 C19.8899349 44.18145849 20.2931456 47.06339555 20.69482422 49.94555664 C21.2025352 53.58787503 21.71449641 57.22958012 22.22776794 60.87111855 C27.80859375 100.48669709 27.80859375 100.48669709 27.80859375 109.78125 C21.20859375 109.78125 14.60859375 109.78125 7.80859375 109.78125 C5.72143141 100.87602402 5.40017382 93.24653111 4.80859375 83.78125 C-6.41140625 83.78125 -17.63140625 83.78125 -29.19140625 83.78125 C-29.19140625 86.42125 -29.19140625 89.06125 -29.19140625 91.78125 C-29.44623465 93.6442188 -29.75275676 95.50144117 -30.12890625 97.34375 C-30.96239681 101.49885479 -31.58890602 105.56374836 -32.19140625 109.78125 C-39.12140625 109.78125 -46.05140625 109.78125 -53.19140625 109.78125 C-52.92328125 107.161875 -52.65515625 104.5425 -52.37890625 101.84375 C-52.3018042 101.0587915 -52.22470215 100.27383301 -52.14526367 99.46508789 C-51.61018961 94.46813944 -50.79930752 89.56529224 -49.87890625 84.625 C-48.48728171 77.06880402 -47.45545674 69.48081789 -46.47312355 61.86152458 C-45.94069568 57.75604602 -45.38885784 53.65311025 -44.83946705 49.5498724 C-44.36814081 46.01519278 -43.90955871 42.47962871 -43.4753418 38.94018555 C-43.04762665 35.46027625 -42.58655874 31.98620413 -42.10324669 28.51359749 C-41.84305453 26.58022718 -41.61753678 24.64228976 -41.39302063 22.70445251 C-40.18356041 14.26303602 -37.84899172 10.0583107 -31.19140625 4.78125 C-30.52426102 4.16402573 -29.85711578 3.54680145 -29.16975403 2.91087341 C-22.09328653 -3.52852208 -8.59727921 -3.2831715 0 0 Z " fill="#FCFCFC" transform="translate(1165.19140625,88.21875)"/>
<path d="M0 0 C6.93 0 13.86 0 21 0 C21.09037334 13.32589685 21.16375803 26.65159011 21.20724869 39.97772408 C21.22812214 46.16560376 21.25643601 52.35326288 21.30175781 58.54101562 C21.34522322 64.51269575 21.36913893 70.48416373 21.37950897 76.45598984 C21.38689901 78.73417373 21.40132997 81.01234603 21.42292023 83.29043961 C21.45196262 86.48180469 21.45595554 89.67229353 21.45410156 92.86376953 C21.46848267 93.80532394 21.48286377 94.74687836 21.49768066 95.71696472 C21.46254346 101.30773859 20.80712417 104.60682086 17 109 C13.2626144 111.4915904 11.42668417 111.45793285 7 111 C1.65977841 107.72956228 -1.11579329 102.6122725 -4.375 97.4375 C-5.68767261 95.38859885 -7.00156075 93.34047616 -8.31640625 91.29296875 C-8.6725853 90.73610382 -9.02876434 90.17923889 -9.39573669 89.60549927 C-14.11337738 82.23752794 -18.93467498 74.93735127 -23.7456665 67.63015747 C-25.30001029 65.26897296 -26.85309837 62.90696754 -28.40576172 60.54467773 C-33.18716214 53.26194421 -33.18716214 53.26194421 -38 46 C-38.33 67.45 -38.66 88.9 -39 111 C-45.6 111 -52.2 111 -59 111 C-59.09033558 97.52644856 -59.16373618 84.05309795 -59.20724869 70.57931232 C-59.22813151 64.32302419 -59.25646248 58.06695382 -59.30175781 51.81079102 C-59.34518981 45.77427718 -59.36913187 39.73797294 -59.37950897 33.70131493 C-59.38690502 31.39718514 -59.40134759 29.09306693 -59.42292023 26.78902626 C-59.45191822 23.56393182 -59.4559574 20.3397056 -59.45410156 17.11450195 C-59.46848267 16.16000153 -59.48286377 15.2055011 -59.49768066 14.22207642 C-59.47102717 9.94704605 -59.39283405 7.63353859 -57.09661865 3.93034363 C-54.23431891 1.29504223 -52.49803796 0.7915109 -48.6875 0.625 C-47.92824219 0.57601562 -47.16898437 0.52703125 -46.38671875 0.4765625 C-40.95233562 1.66839121 -37.80469357 7.5076214 -34.953125 11.91796875 C-34.58418625 12.48466782 -34.2152475 13.05136688 -33.83512878 13.63523865 C-32.63438473 15.48236484 -31.44221625 17.3348607 -30.25 19.1875 C-29.41476142 20.47549832 -28.57889678 21.76309087 -27.74243164 23.05029297 C-26.01902646 25.70377514 -24.2986709 28.35919613 -22.58056641 31.01611328 C-18.92587235 36.66390111 -15.2396131 42.29100641 -11.55432129 47.91885376 C-9.19579055 51.52193546 -6.84147699 55.12777679 -4.48608398 58.73291016 C-3.33185319 60.49374261 -2.16787508 62.24818738 -1 64 C-0.67 42.88 -0.34 21.76 0 0 Z " fill="#FAFAFA" transform="translate(325,87)"/>
<path d="M0 0 C6.93 0 13.86 0 21 0 C21.09037334 13.32589685 21.16375803 26.65159011 21.20724869 39.97772408 C21.22812214 46.16560376 21.25643601 52.35326288 21.30175781 58.54101562 C21.34522322 64.51269575 21.36913893 70.48416373 21.37950897 76.45598984 C21.38689901 78.73417373 21.40132997 81.01234603 21.42292023 83.29043961 C21.45196262 86.48180469 21.45595554 89.67229353 21.45410156 92.86376953 C21.46848267 93.80532394 21.48286377 94.74687836 21.49768066 95.71696472 C21.46254346 101.30773859 20.80712417 104.60682086 17 109 C13.2626144 111.4915904 11.42668417 111.45793285 7 111 C2.29029492 107.97614984 -0.19539662 104.03472969 -3.0703125 99.37890625 C-4.03990292 97.84471707 -5.01030779 96.31104237 -5.98144531 94.77783203 C-6.47841919 93.98822083 -6.97539307 93.19860962 -7.48742676 92.3850708 C-9.92123436 88.54737006 -12.42547092 84.7568239 -14.9296875 80.96484375 C-15.9193791 79.46165982 -16.90896231 77.95840452 -17.8984375 76.45507812 C-19.39879692 74.1776234 -20.89947001 71.90037593 -22.40039062 69.62329102 C-23.89010862 67.3626583 -25.37869581 65.10128404 -26.8671875 62.83984375 C-27.3099704 62.16888168 -27.7527533 61.49791962 -28.20895386 60.80662537 C-29.47966059 58.87554958 -30.74210094 56.93944071 -32 55 C-32.47213928 54.27531525 -32.94427856 53.55063049 -33.4307251 52.8039856 C-33.88945007 52.08822357 -34.34817505 51.37246155 -34.82080078 50.63500977 C-35.23854767 49.98645523 -35.65629456 49.3379007 -36.08670044 48.66969299 C-37 47 -37 47 -37 45 C-37.66 45 -38.32 45 -39 45 C-39 66.78 -39 88.56 -39 111 C-45.6 111 -52.2 111 -59 111 C-59.09037334 97.67410315 -59.16375803 84.34840989 -59.20724869 71.02227592 C-59.22812214 64.83439624 -59.25643601 58.64673712 -59.30175781 52.45898438 C-59.34522322 46.48730425 -59.36913893 40.51583627 -59.37950897 34.54401016 C-59.38689901 32.26582627 -59.40132997 29.98765397 -59.42292023 27.70956039 C-59.45196262 24.51819531 -59.45595554 21.32770647 -59.45410156 18.13623047 C-59.46848267 17.19467606 -59.48286377 16.25312164 -59.49768066 15.28303528 C-59.46169341 9.55700824 -58.78031034 6.37958489 -55 2 C-52.72751762 0.86375881 -51.21697236 0.73553157 -48.6875 0.625 C-47.92824219 0.57601562 -47.16898438 0.52703125 -46.38671875 0.4765625 C-40.71630813 1.72015501 -37.48165712 7.95143056 -34.515625 12.57421875 C-33.88753937 13.53652153 -33.88753937 13.53652153 -33.24676514 14.51826477 C-31.90877504 16.57101284 -30.5791832 18.6290412 -29.25 20.6875 C-28.40551422 21.9866964 -27.56046493 23.28552669 -26.71484375 24.58398438 C-23.80669864 29.05391111 -20.90356269 33.52709527 -18 38 C-9.585 50.87 -9.585 50.87 -1 64 C-0.67 42.88 -0.34 21.76 0 0 Z " fill="#F9F9F9" transform="translate(1539,87)"/>
<path d="M0 0 C6.6 0 13.2 0 20 0 C20.067753 13.34317244 20.12280312 26.68623078 20.15543652 40.02953625 C20.17109819 46.22524082 20.19234593 52.4208217 20.22631836 58.61645508 C20.25889345 64.5946048 20.27684923 70.57263546 20.28463173 76.55086708 C20.29017853 78.83265368 20.30100992 81.11443369 20.31719017 83.39616966 C20.33893946 86.59002179 20.34196792 89.78338076 20.34057617 92.97729492 C20.351362 93.92244461 20.36214783 94.8675943 20.3732605 95.84138489 C20.34469092 101.89290246 19.4434754 105.28502733 15.3125 109.875 C12.47990045 111.2530214 10.19795171 111.10835324 7.09765625 110.8125 C0.12971967 108.11355995 -3.70234114 99.62092405 -7.5 93.6875 C-8.22837846 92.55960182 -8.95748097 91.43217094 -9.68725586 90.30517578 C-10.85579217 88.50039517 -12.02382698 86.69530809 -13.18968201 84.88879395 C-18.26855085 77.02113915 -23.41953497 69.20083079 -28.5625 61.375 C-33.2340625 54.259375 -33.2340625 54.259375 -38 47 C-38.33 68.12 -38.66 89.24 -39 111 C-45.93 111 -52.86 111 -60 111 C-60.067753 97.65682756 -60.12280312 84.31376922 -60.15543652 70.97046375 C-60.17109819 64.77475918 -60.19234593 58.5791783 -60.22631836 52.38354492 C-60.25889345 46.4053952 -60.27684923 40.42736454 -60.28463173 34.44913292 C-60.29017853 32.16734632 -60.30100992 29.88556631 -60.31719017 27.60383034 C-60.33893946 24.40997821 -60.34196792 21.21661924 -60.34057617 18.02270508 C-60.351362 17.07755539 -60.36214783 16.1324057 -60.3732605 15.15861511 C-60.35033889 10.30343327 -60.24521497 6.89255209 -57 3 C-53.97792605 0.98528403 -53.08273301 0.66280966 -49.625 0.5625 C-48.49964844 0.50255859 -48.49964844 0.50255859 -47.3515625 0.44140625 C-40.42688511 2.0863047 -36.34558078 11.18970389 -32.75 16.6875 C-32.0605127 17.73172119 -31.37102539 18.77594238 -30.66064453 19.85180664 C-28.43330964 23.22992287 -26.21554264 26.61414769 -24 30 C-23.23087079 31.17387826 -22.46166473 32.34770618 -21.69238281 33.52148438 C-17.44819074 39.99906378 -13.21268079 46.48221774 -8.98779297 52.97241211 C-6.34634571 56.99557441 -3.6696631 60.99550534 -1 65 C-0.67 43.55 -0.34 22.1 0 0 Z " fill="#FAFAFA" transform="translate(427,87)"/>
<path d="M0 0 C1.65148544 0.0001133 1.65148544 0.0001133 3.33633423 0.00022888 C4.52906952 0.00539017 5.72180481 0.01055145 6.95068359 0.01586914 C8.16863617 0.01728409 9.38658875 0.01869904 10.64144897 0.02015686 C14.54403099 0.025769 18.44655632 0.0383236 22.34912109 0.05102539 C24.98974527 0.05603882 27.63037034 0.060602 30.27099609 0.06469727 C36.75539305 0.07574239 43.23974745 0.09301521 49.72412109 0.11352539 C49.72412109 7.04352539 49.72412109 13.97352539 49.72412109 21.11352539 C48.25023926 21.13334473 46.77635742 21.15316406 45.2578125 21.17358398 C39.80467241 21.24948875 34.35180447 21.33822902 28.89892578 21.4309082 C26.53602459 21.46926066 24.17306375 21.50410231 21.81005859 21.53540039 C18.41921629 21.58091505 15.02878686 21.63893158 11.63818359 21.69946289 C10.04594467 21.7167897 10.04594467 21.7167897 8.42153931 21.73446655 C7.44067352 21.75433624 6.45980774 21.77420593 5.44921875 21.79467773 C4.58318024 21.8080014 3.71714172 21.82132507 2.82485962 21.83505249 C0.50654467 21.92573252 0.50654467 21.92573252 -1.27587891 24.11352539 C-1.58335714 26.89180367 -1.58335714 26.89180367 -1.53466797 30.18383789 C-1.54097229 31.45855957 -1.54727661 32.73328125 -1.55377197 34.04663086 C-1.5501923 35.44393044 -1.54609036 36.84122876 -1.54150391 38.23852539 C-1.54285062 39.66577216 -1.5447912 41.09301848 -1.54730225 42.52026367 C-1.55025325 45.51298384 -1.54595673 48.5055847 -1.53662109 51.49829102 C-1.52522646 55.33868912 -1.53178608 59.17880771 -1.54376602 63.01919556 C-1.55098533 65.96681839 -1.54869639 68.9143747 -1.54351044 71.86199951 C-1.54217413 73.27821892 -1.543821 74.69444433 -1.54846954 76.11065674 C-1.55353565 78.08817432 -1.54444798 80.06571301 -1.53466797 82.04321289 C-1.53307678 83.16969238 -1.5314856 84.29617187 -1.52984619 85.45678711 C-1.54554706 88.26826375 -1.54554706 88.26826375 0.72412109 90.11352539 C3.60500033 90.42551078 3.60500033 90.42551078 6.97412109 90.37915039 C8.22193359 90.38172852 9.46974609 90.38430664 10.75537109 90.38696289 C12.06505859 90.37922852 13.37474609 90.37149414 14.72412109 90.36352539 C16.68865234 90.37512695 16.68865234 90.37512695 18.69287109 90.38696289 C20.56458984 90.3830957 20.56458984 90.3830957 22.47412109 90.37915039 C24.19888672 90.3757666 24.19888672 90.3757666 25.95849609 90.37231445 C28.86611941 90.39696215 28.86611941 90.39696215 30.72412109 88.11352539 C31.09464102 85.78899149 31.09464102 85.78899149 31.13818359 83.10571289 C31.17685547 82.11958008 31.21552734 81.13344727 31.25537109 80.11743164 C31.28630859 79.08489258 31.31724609 78.05235352 31.34912109 76.98852539 C31.38779297 75.94825195 31.42646484 74.90797852 31.46630859 73.83618164 C31.56076438 71.26226138 31.64353881 68.68791734 31.72412109 66.11352539 C25.45412109 66.11352539 19.18412109 66.11352539 12.72412109 66.11352539 C12.72412109 59.18352539 12.72412109 52.25352539 12.72412109 45.11352539 C25.92412109 45.11352539 39.12412109 45.11352539 52.72412109 45.11352539 C52.88525095 51.94747734 53.02445211 58.77478929 53.10864258 65.60913086 C53.1437485 67.93129864 53.19144625 70.25331276 53.25219727 72.57495117 C53.33754719 75.92152884 53.37690941 79.26605434 53.40771484 82.61352539 C53.44384384 83.64405029 53.47997284 84.6745752 53.51719666 85.73632812 C53.52017043 91.25067846 53.0068653 94.43862792 49.32910156 98.67626953 C48.14901653 99.844231 46.94935097 100.99301372 45.72412109 102.11352539 C44.94423828 102.93723633 44.16435547 103.76094727 43.36083984 104.60961914 C42.71759766 105.2502832 42.07435547 105.89094727 41.41162109 106.55102539 C40.75548828 107.20973633 40.09935547 107.86844727 39.42333984 108.54711914 C34.33308616 113.23951392 24.66469766 111.50558446 18.06835938 111.57348633 C16.09936118 111.60003753 14.13050058 111.6409012 12.16210938 111.6965332 C9.31502388 111.7760313 6.47059428 111.80885822 3.62255859 111.83227539 C2.75142426 111.86526733 1.88028992 111.89825928 0.98275757 111.93225098 C-5.23179288 111.91213503 -8.24466693 110.1764032 -12.651474 105.82893372 C-13.18752762 105.26284897 -13.72358124 104.69676422 -14.27587891 104.11352539 C-15.02740234 103.40583008 -15.77892578 102.69813477 -16.55322266 101.96899414 C-17.10107422 101.41856445 -17.64892578 100.86813477 -18.21337891 100.30102539 C-18.77927734 99.73770508 -19.34517578 99.17438477 -19.92822266 98.59399414 C-22.88972819 95.34063009 -22.45760403 91.92676104 -22.50048828 87.76147461 C-22.51757339 86.62451393 -22.51757339 86.62451393 -22.53500366 85.46458435 C-22.64574005 77.52678941 -22.69310397 69.58806293 -22.73583984 61.6496582 C-22.75809314 57.88584657 -22.79982652 54.12302992 -22.85888672 50.35961914 C-22.9301128 45.81195925 -22.96669229 41.26523385 -22.97895813 36.71704483 C-22.98933733 34.98748533 -23.01171098 33.25795286 -23.04655457 31.52871323 C-23.33745216 16.3008156 -23.33745216 16.3008156 -18.87866211 11.13134766 C-17.01264954 9.4533844 -17.01264954 9.4533844 -15.27587891 8.11352539 C-14.49599609 7.36200195 -13.71611328 6.61047852 -12.91259766 5.83618164 C-11.94773437 5.0144043 -11.94773437 5.0144043 -10.96337891 4.17602539 C-10.30724609 3.61012695 -9.65111328 3.04422852 -8.97509766 2.46118164 C-5.89053093 0.01480114 -3.87816491 -0.00885426 0 0 Z " fill="#F8F8F8" transform="translate(1604.27587890625,86.886474609375)"/>
<path d="M0 0 C6.93 0 13.86 0 21 0 C21 14.85 21 29.7 21 45 C32.22 45 43.44 45 55 45 C55 30.15 55 15.3 55 0 C61.6 0 68.2 0 75 0 C75 36.63 75 73.26 75 111 C68.4 111 61.8 111 55 111 C55 96.15 55 81.3 55 66 C43.45 66 31.9 66 20 66 C20 80.85 20 95.7 20 111 C13.4 111 6.8 111 0 111 C0 74.37 0 37.74 0 0 Z " fill="#FAFAFA" transform="translate(1312,87)"/>
<path d="M0 0 C21.45 0 42.9 0 65 0 C65 6.93 65 13.86 65 21 C50.15 21 35.3 21 20 21 C20 29.25 20 37.5 20 46 C34.85 46 49.7 46 65 46 C65 52.6 65 59.2 65 66 C50.15 66 35.3 66 20 66 C20 74.25 20 82.5 20 91 C34.85 91 49.7 91 65 91 C65 97.6 65 104.2 65 111 C43.55 111 22.1 111 0 111 C0 74.37 0 37.74 0 0 Z " fill="#FCFCFC" transform="translate(540,87)"/>
<path d="M0 0 C1.26863388 -0.00642769 1.26863388 -0.00642769 2.56289673 -0.01298523 C4.34986477 -0.01872068 6.13685615 -0.01923457 7.92382812 -0.01489258 C10.64754435 -0.01173788 13.3701684 -0.0351826 16.09375 -0.06054688 C17.83333197 -0.06282059 19.57291685 -0.06352303 21.3125 -0.0625 C22.12206146 -0.07170975 22.93162292 -0.08091949 23.76571655 -0.09040833 C31.01899229 -0.03153881 35.5072995 2.15008786 40.67773438 7.37695312 C41.3825293 8.11268555 41.3825293 8.11268555 42.1015625 8.86328125 C42.59076172 9.35763672 43.07996094 9.85199219 43.58398438 10.36132812 C47.52080469 14.38527033 48.41605549 16.1721125 48.38671875 21.74609375 C48.38188477 23.36064453 48.38188477 23.36064453 48.37695312 25.0078125 C48.36438477 26.69970703 48.36438477 26.69970703 48.3515625 28.42578125 C48.34705078 29.56144531 48.34253906 30.69710937 48.33789062 31.8671875 C48.32607878 34.67840772 48.30814291 37.48960097 48.2890625 40.30078125 C41.6890625 40.30078125 35.0890625 40.30078125 28.2890625 40.30078125 C27.8515625 32.48828125 27.8515625 32.48828125 27.72094727 30.03979492 C27.53621532 26.92669068 27.27955944 24.27227208 26.2890625 21.30078125 C22.19524851 21.39425426 18.10197641 21.50033281 14.00878906 21.61816406 C12.61597678 21.65647452 11.22306485 21.69132384 9.83007812 21.72265625 C7.82919942 21.76826032 5.82864104 21.82729748 3.828125 21.88671875 C2.02142334 21.9338501 2.02142334 21.9338501 0.17822266 21.98193359 C-2.8369393 22.00993351 -2.8369393 22.00993351 -4.7109375 24.30078125 C-5.01841573 27.07905953 -5.01841573 27.07905953 -4.96972656 30.37109375 C-4.97603088 31.64581543 -4.98233521 32.92053711 -4.98883057 34.23388672 C-4.98525089 35.63118629 -4.98114896 37.02848462 -4.9765625 38.42578125 C-4.97790921 39.85302802 -4.97984979 41.28027434 -4.98236084 42.70751953 C-4.98531184 45.7002397 -4.98101532 48.69284056 -4.97167969 51.68554688 C-4.96028505 55.52594498 -4.96684467 59.36606357 -4.97882462 63.20645142 C-4.98604393 66.15407425 -4.98375498 69.10163056 -4.97856903 72.04925537 C-4.97723273 73.46547478 -4.97887959 74.88170019 -4.98352814 76.2979126 C-4.98859425 78.27543018 -4.97950658 80.25296887 -4.96972656 82.23046875 C-4.96813538 83.35694824 -4.96654419 84.48342773 -4.96490479 85.64404297 C-4.98060565 88.45551961 -4.98060565 88.45551961 -2.7109375 90.30078125 C0.16994173 90.61276664 0.16994173 90.61276664 3.5390625 90.56640625 C4.786875 90.56898438 6.0346875 90.5715625 7.3203125 90.57421875 C8.63 90.56648438 9.9396875 90.55875 11.2890625 90.55078125 C13.25359375 90.56238281 13.25359375 90.56238281 15.2578125 90.57421875 C17.12953125 90.57035156 17.12953125 90.57035156 19.0390625 90.56640625 C20.76382813 90.56302246 20.76382813 90.56302246 22.5234375 90.55957031 C25.43106082 90.58421801 25.43106082 90.58421801 27.2890625 88.30078125 C27.5965516 85.39413904 27.8001287 82.5889228 27.9140625 79.67578125 C28.0378125 76.91203125 28.1615625 74.14828125 28.2890625 71.30078125 C35.2190625 71.30078125 42.1490625 71.30078125 49.2890625 71.30078125 C49.47915704 74.96990754 49.6172593 78.62908598 49.7265625 82.30078125 C49.81454102 83.84572266 49.81454102 83.84572266 49.90429688 85.421875 C50.02868295 91.001479 49.77039251 94.47163816 46.0234375 98.7734375 C44.79979 99.97120819 43.55677415 101.1497491 42.2890625 102.30078125 C41.15404297 103.53634766 41.15404297 103.53634766 39.99609375 104.796875 C39.37089844 105.43753906 38.74570312 106.07820313 38.1015625 106.73828125 C37.46863281 107.39699219 36.83570313 108.05570312 36.18359375 108.734375 C33.18776987 111.21133453 30.08613497 111.41954544 26.29003906 111.52539062 C25.12797943 111.55916809 25.12797943 111.55916809 23.94244385 111.59362793 C20.40737726 111.66524117 16.87250015 111.72213593 13.33691406 111.76074219 C11.47857878 111.78733617 9.62039077 111.82824769 7.76269531 111.88378906 C-9.67915708 112.39842602 -9.67915708 112.39842602 -14.734375 108.00390625 C-16.39648438 106.078125 -16.39648438 106.078125 -17.7109375 104.30078125 C-18.82082031 103.25664062 -18.82082031 103.25664062 -19.953125 102.19140625 C-20.49195313 101.65 -21.03078125 101.10859375 -21.5859375 100.55078125 C-22.14023437 99.9990625 -22.69453125 99.44734375 -23.265625 98.87890625 C-26.80600369 95.01319546 -27.00800595 92.0616518 -27.00146484 87.07885742 C-27.00818207 86.34678574 -27.01489929 85.61471405 -27.02182007 84.86045837 C-27.04083096 82.43815334 -27.04472605 80.01612502 -27.046875 77.59375 C-27.05330177 75.90847154 -27.06003004 74.2231942 -27.06704712 72.53791809 C-27.0790283 69.00303563 -27.08272718 65.46825095 -27.08154297 61.93334961 C-27.08133996 57.41052071 -27.10861967 52.88832142 -27.14308739 48.36564159 C-27.1653622 44.88341919 -27.16938031 41.40134801 -27.16832352 37.91906166 C-27.17067946 36.25213772 -27.1795027 34.58520961 -27.19498825 32.91835594 C-27.21465682 30.58209011 -27.20880749 28.24717782 -27.19677734 25.91088867 C-27.20801636 25.22651733 -27.21925537 24.542146 -27.23083496 23.83703613 C-27.13341578 16.36552309 -22.76347269 12.0725083 -17.7109375 7.05078125 C-16.8653125 6.2 -16.0196875 5.34921875 -15.1484375 4.47265625 C-10.32088283 0.17118125 -6.33955094 -0.00710158 0 0 Z " fill="#F8F8F8" transform="translate(944.7109375,86.69921875)"/>
<path d="M0 0 C1.23746223 -0.00855011 1.23746223 -0.00855011 2.49992371 -0.01727295 C4.24578573 -0.02671623 5.99166552 -0.03325426 7.73754883 -0.03710938 C10.39761793 -0.04680086 13.05690953 -0.07782412 15.71679688 -0.109375 C17.41536001 -0.11590689 19.11392865 -0.12115663 20.8125 -0.125 C21.60332474 -0.1373468 22.39414948 -0.1496936 23.2089386 -0.16241455 C29.65454342 -0.1366451 33.66351275 1.47665686 38.5625 5.83203125 C39.52218039 6.80218565 40.47397819 7.78019726 41.41796875 8.765625 C41.90716797 9.25998047 42.39636719 9.75433594 42.90039062 10.26367188 C46.83721094 14.28761408 47.73246174 16.07445625 47.703125 21.6484375 C47.69829102 23.26298828 47.69829102 23.26298828 47.69335938 24.91015625 C47.68079102 26.60205078 47.68079102 26.60205078 47.66796875 28.328125 C47.66345703 29.46378906 47.65894531 30.59945312 47.65429688 31.76953125 C47.64248503 34.58075147 47.62454916 37.39194472 47.60546875 40.203125 C41.00546875 40.203125 34.40546875 40.203125 27.60546875 40.203125 C27.23046875 32.328125 27.23046875 32.328125 27.12744141 29.85205078 C27.02051096 25.56600912 27.02051096 25.56600912 24.60546875 22.203125 C21.60981009 21.90758059 21.60981009 21.90758059 18.1015625 21.97265625 C16.80412109 21.97458984 15.50667969 21.97652344 14.16992188 21.97851562 C13.49324463 21.98471924 12.81656738 21.99092285 12.11938477 21.99731445 C10.04756404 22.01558448 7.97618978 22.01782405 5.90429688 22.01757812 C-0.13178676 21.44873186 -0.13178676 21.44873186 -5.39453125 23.203125 C-5.49913843 25.21718629 -5.53308953 27.23494411 -5.53979492 29.25170898 C-5.54617477 30.54652695 -5.55255463 31.84134491 -5.55912781 33.17539978 C-5.56065636 34.60000573 -5.56177039 36.02461217 -5.5625 37.44921875 C-5.56571087 38.90031467 -5.56907481 40.35141027 -5.57258606 41.80250549 C-5.57858371 44.84824372 -5.58042532 47.89395355 -5.57983398 50.93969727 C-5.57973234 54.84848357 -5.59338434 58.75708832 -5.61060619 62.66583157 C-5.62170796 65.6640558 -5.62375376 68.6622359 -5.62322426 71.66047859 C-5.62440714 73.10182381 -5.62884611 74.54317008 -5.63655663 75.98449516 C-5.64631911 77.99802196 -5.64222396 80.01160168 -5.63745117 82.02514648 C-5.63887619 83.17240707 -5.64030121 84.31966766 -5.64176941 85.50169373 C-5.6712646 88.35287028 -5.6712646 88.35287028 -3.39453125 90.203125 C-0.51365202 90.51511039 -0.51365202 90.51511039 2.85546875 90.46875 C4.10328125 90.47132813 5.35109375 90.47390625 6.63671875 90.4765625 C7.94640625 90.46882813 9.25609375 90.46109375 10.60546875 90.453125 C12.57 90.46472656 12.57 90.46472656 14.57421875 90.4765625 C16.4459375 90.47269531 16.4459375 90.47269531 18.35546875 90.46875 C20.08023437 90.46536621 20.08023437 90.46536621 21.83984375 90.46191406 C24.74746707 90.48656176 24.74746707 90.48656176 26.60546875 88.203125 C26.91295785 85.29648279 27.11653495 82.49126655 27.23046875 79.578125 C27.35421875 76.814375 27.47796875 74.050625 27.60546875 71.203125 C34.53546875 71.203125 41.46546875 71.203125 48.60546875 71.203125 C48.71372824 74.74561617 48.7929128 78.28477749 48.85546875 81.828125 C48.88898438 82.82714844 48.9225 83.82617188 48.95703125 84.85546875 C49.06230764 92.8038362 47.28191664 96.22360875 41.94921875 102.16015625 C41.00655505 103.11718186 40.0585813 104.06900504 39.10546875 105.015625 C38.63238281 105.50482422 38.15929688 105.99402344 37.671875 106.49804688 C33.77383262 110.4014882 30.97913773 111.27792951 25.60644531 111.42773438 C24.44438568 111.46151184 24.44438568 111.46151184 23.2588501 111.49597168 C19.72378351 111.56758492 16.1889064 111.62447968 12.65332031 111.66308594 C10.79498503 111.68967992 8.93679702 111.73059144 7.07910156 111.78613281 C-10.36250461 112.3007625 -10.36250461 112.3007625 -15.3828125 107.94140625 C-17.04443359 106.01611328 -17.04443359 106.01611328 -18.39453125 104.203125 C-19.21824219 103.42324219 -20.04195312 102.64335937 -20.890625 101.83984375 C-21.53128906 101.19660156 -22.17195313 100.55335938 -22.83203125 99.890625 C-23.49074219 99.23449219 -24.14945313 98.57835937 -24.828125 97.90234375 C-27.89676381 94.57352111 -27.58575934 91.37166762 -27.65087891 87.06640625 C-27.66548157 86.33115219 -27.68008423 85.59589813 -27.69512939 84.83836365 C-27.82138749 78.03905091 -27.88995853 71.23856466 -27.94297218 64.43832397 C-27.97866777 59.87321126 -28.03180027 55.30987049 -28.12841797 50.74560547 C-28.2216532 46.3275364 -28.26995906 41.91103209 -28.28736496 37.49203491 C-28.30139332 35.81427821 -28.33088371 34.13657168 -28.37666702 32.4593811 C-28.75915446 17.72039401 -28.75915446 17.72039401 -23.07958984 11.31640625 C-21.55709906 9.90191564 -19.99706948 8.52623991 -18.39453125 7.203125 C-17.38720444 6.26956177 -17.38720444 6.26956177 -16.35952759 5.31713867 C-10.97922237 0.41487063 -7.00859466 0.03737705 0 0 Z " fill="#F9F9F9" transform="translate(1242.39453125,86.796875)"/>
<path d="M0 0 C16.5 0 33 0 50 0 C50 6.93 50 13.86 50 21 C45.05 21 40.1 21 35 21 C35 44.1 35 67.2 35 91 C39.95 91 44.9 91 50 91 C50 97.6 50 104.2 50 111 C33.83 111 17.66 111 1 111 C1 104.4 1 97.8 1 91 C5.62 91 10.24 91 15 91 C15 67.9 15 44.8 15 21 C10.05 21 5.1 21 0 21 C0 14.07 0 7.14 0 0 Z " fill="#F9F9F9" transform="translate(468,87)"/>
<path d="M0 0 C16.5 0 33 0 50 0 C50 6.93 50 13.86 50 21 C45.05 21 40.1 21 35 21 C35 44.1 35 67.2 35 91 C39.62 91 44.24 91 49 91 C49 97.6 49 104.2 49 111 C32.83 111 16.66 111 0 111 C0 104.4 0 97.8 0 91 C4.95 91 9.9 91 15 91 C15 67.57 15 44.14 15 20 C10.05 20 5.1 20 0 20 C0 13.4 0 6.8 0 0 Z " fill="#FBFBFB" transform="translate(1409,87)"/>
<path d="M0 0 C16.5 0 33 0 50 0 C50 6.93 50 13.86 50 21 C45.05 21 40.1 21 35 21 C35 44.1 35 67.2 35 91 C39.62 91 44.24 91 49 91 C49 97.6 49 104.2 49 111 C32.83 111 16.66 111 0 111 C0 104.4 0 97.8 0 91 C4.95 91 9.9 91 15 91 C15 67.57 15 44.14 15 20 C10.05 20 5.1 20 0 20 C0 13.4 0 6.8 0 0 Z " fill="#FAFAFA" transform="translate(195,87)"/>
<path d="M0 0 C1.04414062 -0.00644531 2.08828125 -0.01289062 3.1640625 -0.01953125 C4.24429687 -0.00019531 5.32453125 0.01914063 6.4375 0.0390625 C8.05785156 0.01005859 8.05785156 0.01005859 9.7109375 -0.01953125 C11.27714844 -0.00986328 11.27714844 -0.00986328 12.875 0 C14.29619141 0.00845947 14.29619141 0.00845947 15.74609375 0.01708984 C19.84236518 1.00177048 21.07484706 2.12902258 23.4375 5.6640625 C24.18690869 10.05649923 24.13768696 14.40069904 24.1015625 18.84765625 C24.10634613 20.13591812 24.11112976 21.42417999 24.11605835 22.7514801 C24.12341513 25.47435591 24.11276693 28.19640954 24.08935547 30.91918945 C24.06089395 34.39759403 24.07725829 37.87406732 24.10721779 41.35240078 C24.129707 44.68430434 24.11392569 48.01569792 24.1015625 51.34765625 C24.11168365 52.59155624 24.12180481 53.83545624 24.13223267 55.11705017 C24.00195642 64.7437157 24.00195642 64.7437157 21.24365234 68.44873047 C18.12702831 70.90916604 16.79372048 71.42411513 12.875 71.42578125 C11.83085938 71.42900391 10.78671875 71.43222656 9.7109375 71.43554688 C8.63070313 71.40783203 7.55046875 71.38011719 6.4375 71.3515625 C5.35726563 71.36638672 4.27703125 71.38121094 3.1640625 71.39648438 C-4.48850158 71.31617969 -4.48850158 71.31617969 -8.36865234 68.96020508 C-11.8684873 63.70188416 -11.27576409 58.40491083 -11.2265625 52.2265625 C-11.23134613 50.91373291 -11.23612976 49.60090332 -11.24105835 48.24829102 C-11.24841486 45.47414623 -11.23776586 42.70080848 -11.21435547 39.92675781 C-11.18586572 36.37876652 -11.20227664 32.83266623 -11.23221779 29.28474426 C-11.25467705 25.89020054 -11.23893158 22.49615989 -11.2265625 19.1015625 C-11.23668365 17.83062744 -11.24680481 16.55969238 -11.25723267 15.25024414 C-11.14128094 6.53423059 -11.14128094 6.53423059 -8.36865234 2.36572266 C-5.27901329 0.49215521 -3.58858531 0.02136063 0 0 Z " fill="#121212" transform="translate(1046.5625,107.3359375)"/>
<path d="M0 0 C0.88429688 -0.02578125 1.76859375 -0.0515625 2.6796875 -0.078125 C5.125 0.25 5.125 0.25 6.69116211 1.31860352 C8.77474696 4.12521678 9.0462264 7.10273446 9.51171875 10.48046875 C9.61845413 11.18972 9.72518951 11.89897125 9.8351593 12.62971497 C10.05851123 14.13094109 10.2758327 15.63307507 10.48754883 17.13598633 C10.80916822 19.41390218 11.14995239 21.68828752 11.49414062 23.96289062 C11.70948107 25.42691497 11.92370872 26.89110352 12.13671875 28.35546875 C12.23667648 29.02660202 12.33663422 29.69773529 12.43962097 30.38920593 C13.09957483 35.13626501 13.125 39.36146053 13.125 44.25 C4.215 44.25 -4.695 44.25 -13.875 44.25 C-13.23396419 38.57929857 -12.57237342 32.91380305 -11.875 27.25 C-11.70629395 25.87110596 -11.70629395 25.87110596 -11.53417969 24.46435547 C-11.18216555 21.64096934 -10.81219431 18.8204577 -10.4375 16 C-10.32752686 15.10772705 -10.21755371 14.2154541 -10.10424805 13.29614258 C-9.12281466 6.11971016 -8.05827481 0.14014391 0 0 Z " fill="#151515" transform="translate(1152.875,107.75)"/>
<path d="M0 0 C2.02394639 0.65715509 4.04587313 1.32071516 6.0625 2 C6.3925 3.65 6.7225 5.3 7.0625 7 C5.47892541 6.68872484 3.89565007 6.37592711 2.3125 6.0625 C1.43078125 5.88847656 0.5490625 5.71445313 -0.359375 5.53515625 C-1.9204272 5.21111966 -3.47594865 4.85526662 -5.015625 4.44140625 C-9.50884141 3.40942768 -14.55764319 3.54004773 -18.9375 5 C-18.58143309 2.41851492 -18.10421807 1.17954253 -16.3125 -0.75 C-10.70383911 -3.70192679 -5.74484978 -1.75467694 0 0 Z " fill="#2D2D2D" transform="translate(777.9375,198)"/>
<path d="M0 0 C0 1.65 0 3.3 0 5 C-1.6256807 4.69106068 -3.25052748 4.3777305 -4.875 4.0625 C-5.77992188 3.88847656 -6.68484375 3.71445313 -7.6171875 3.53515625 C-10 3 -10 3 -12 2 C-13.45579587 1.90444583 -14.9160796 1.87015309 -16.375 1.875 C-17.53128906 1.87113281 -17.53128906 1.87113281 -18.7109375 1.8671875 C-20.9328189 1.99610212 -22.86618508 2.38616283 -25 3 C-21.17364603 -7.65912893 -8.61602651 -2.44922581 0 0 Z " fill="#212121" transform="translate(784,218)"/>
<path d="M0 0 C6.01408939 0.08779693 11.08255949 2.04133712 16.5625 4.375 C16.5625 5.695 16.5625 7.015 16.5625 8.375 C14.97892541 8.06372484 13.39565007 7.75092711 11.8125 7.4375 C10.93078125 7.26347656 10.0490625 7.08945313 9.140625 6.91015625 C7.56964207 6.58405828 6.00413372 6.22713634 4.453125 5.81640625 C0.18190528 4.81919999 -4.269224 5.04115168 -8.4375 6.375 C-6.35407505 1.91051796 -5.07471607 0.08119546 0 0 Z " fill="#202020" transform="translate(767.4375,223.625)"/>
<path d="M0 0 C0.33 1.65 0.66 3.3 1 5 C0.154375 4.7834375 -0.69125 4.566875 -1.5625 4.34375 C-12.73291965 1.48679615 -12.73291965 1.48679615 -24 3 C-20.24611454 -7.45725235 -8.42334597 -2.64508808 0 0 Z " fill="#1D1D1D" transform="translate(783,209)"/>
<path d="M0 0 C0.72832031 -0.02578125 1.45664062 -0.0515625 2.20703125 -0.078125 C4.71981063 0.33819348 5.58516537 1.32922032 7.1875 3.25 C6.8575 4.24 6.5275 5.23 6.1875 6.25 C5.5275 5.92 4.8675 5.59 4.1875 5.25 C2.24443343 5.20410661 2.24443343 5.20410661 0.0546875 5.37109375 C-0.75097656 5.41943359 -1.55664062 5.46777344 -2.38671875 5.51757812 C-3.22847656 5.57365234 -4.07023438 5.62972656 -4.9375 5.6875 C-5.78699219 5.73970703 -6.63648438 5.79191406 -7.51171875 5.84570312 C-9.61229124 5.97551378 -11.71244191 6.1121174 -13.8125 6.25 C-13.4825 4.6 -13.1525 2.95 -12.8125 1.25 C-8.54094385 0.62868274 -4.31631512 0.14151853 0 0 Z " fill="#1E1E1E" transform="translate(756.8125,179.75)"/>
<path d="M0 0 C1.55074219 -0.03867188 1.55074219 -0.03867188 3.1328125 -0.078125 C5.875 0.25 5.875 0.25 7.7421875 1.765625 C8.30292969 2.50039062 8.30292969 2.50039062 8.875 3.25 C8.545 4.24 8.215 5.23 7.875 6.25 C7.215 5.92 6.555 5.59 5.875 5.25 C2.99129667 5.17805131 0.13260336 5.15708292 -2.75 5.1875 C-3.95269531 5.19426758 -3.95269531 5.19426758 -5.1796875 5.20117188 C-7.16149006 5.21296832 -9.14325433 5.23090395 -11.125 5.25 C-11.125 3.93 -11.125 2.61 -11.125 1.25 C-7.37972143 0.3931466 -3.84053202 0.05775236 0 0 Z " fill="#1A1A1A" transform="translate(755.125,170.75)"/>
<path d="M0 0 C1.41539062 -0.03867188 1.41539062 -0.03867188 2.859375 -0.078125 C3.64828125 0.03015625 4.4371875 0.1384375 5.25 0.25 C5.91 1.24 6.57 2.23 7.25 3.25 C5.71298119 4.78701881 4.13192837 4.57298725 1.99609375 4.78515625 C1.14208984 4.87216797 0.28808594 4.95917969 -0.59179688 5.04882812 C-1.48962891 5.13583984 -2.38746094 5.22285156 -3.3125 5.3125 C-4.66504883 5.44881836 -4.66504883 5.44881836 -6.04492188 5.58789062 C-8.27958434 5.81253923 -10.51457839 6.03305769 -12.75 6.25 C-12.42 4.6 -12.09 2.95 -11.75 1.25 C-7.83225878 0.40292082 -3.99612998 0.10502313 0 0 Z " fill="#202020" transform="translate(755.75,188.75)"/>
<path d="M0 0 C-0.33 1.65 -0.66 3.3 -1 5 C-5.0527516 5.98248524 -8.83861737 6.08159574 -13 6 C-12.67 4.35 -12.34 2.7 -12 1 C-7.95858806 0.36605303 -4.0934693 -0.12404452 0 0 Z " fill="#313131" transform="translate(756,198)"/>
<path d="M0 0 C0 1.65 0 3.3 0 5 C-5.94 5.495 -5.94 5.495 -12 6 C-12 4.68 -12 3.36 -12 2 C-10.56342755 1.66269158 -9.12569907 1.33030409 -7.6875 1 C-6.88699219 0.814375 -6.08648438 0.62875 -5.26171875 0.4375 C-3 0 -3 0 0 0 Z " fill="#292929" transform="translate(755,216)"/>
<path d="M0 0 C0 1.65 0 3.3 0 5 C-5.94 5.495 -5.94 5.495 -12 6 C-11.67 4.35 -11.34 2.7 -11 1 C-3.375 0 -3.375 0 0 0 Z " fill="#2B2B2B" transform="translate(755,207)"/>
<path d="M0 0 C3.3 0.33 6.6 0.66 10 1 C10 2.65 10 4.3 10 6 C6.37 5.67 2.74 5.34 -1 5 C-0.67 3.35 -0.34 1.7 0 0 Z " fill="#272727" transform="translate(765,141)"/>
<path d="M0 0 C3.3 0 6.6 0 10 0 C10 1.32 10 2.64 10 4 C7.24921116 4.91692961 5.64051087 5.10886083 2.8125 5.0625 C0.9253125 5.0315625 0.9253125 5.0315625 -1 5 C-0.67 3.35 -0.34 1.7 0 0 Z " fill="#272727" transform="translate(745,226)"/>
<path d="M0 0 C6.625 -0.125 6.625 -0.125 10 1 C10 2.32 10 3.64 10 5 C6.37 5 2.74 5 -1 5 C-0.67 3.35 -0.34 1.7 0 0 Z " fill="#262626" transform="translate(765,132)"/>
<path d="M0 0 C1.22589844 0.15275391 1.22589844 0.15275391 2.4765625 0.30859375 C3.41628906 0.43427734 3.41628906 0.43427734 4.375 0.5625 C4.375 2.2125 4.375 3.8625 4.375 5.5625 C0.745 5.2325 -2.885 4.9025 -6.625 4.5625 C-6.625 3.2425 -6.625 1.9225 -6.625 0.5625 C-4.10446405 -0.69776798 -2.7707902 -0.35624445 0 0 Z " fill="#212121" transform="translate(770.625,159.4375)"/>
<path d="M0 0 C2.97 0.33 5.94 0.66 9 1 C9.33 2.65 9.66 4.3 10 6 C6.37 5.67 2.74 5.34 -1 5 C-0.67 3.35 -0.34 1.7 0 0 Z " fill="#202020" transform="translate(765,150)"/>
<path d="M0 0 C6.75 0.875 6.75 0.875 9 2 C9 3.32 9 4.64 9 6 C6.69 5.67 4.38 5.34 2 5 C1.34 3.35 0.68 1.7 0 0 Z " fill="#232323" transform="translate(766,168)"/>
<path d="M0 0 C4.56228926 -0.36792655 8.07242087 -0.61838609 12 2 C9.23547967 3.38226016 6.9538637 3.09525387 3.875 3.0625 C2.77929688 3.05347656 1.68359375 3.04445312 0.5546875 3.03515625 C-0.70988281 3.01775391 -0.70988281 3.01775391 -2 3 C-1.34 2.01 -0.68 1.02 0 0 Z " fill="#1E1E1E" transform="translate(763,233)"/>
<path d="M0 0 C2.97 0.495 2.97 0.495 6 1 C6 2.65 6 4.3 6 6 C3.03 5.505 3.03 5.505 0 5 C0 3.35 0 1.7 0 0 Z " fill="#191919" transform="translate(769,187)"/>
<path d="M0 0 C1.65 0 3.3 0 5 0 C5.33 1.65 5.66 3.3 6 5 C3.03 4.505 3.03 4.505 0 4 C0 2.68 0 1.36 0 0 Z " fill="#202020" transform="translate(769,178)"/>
<path d="M0 0 C0.99 0 1.98 0 3 0 C3 1.65 3 3.3 3 5 C1.68 5 0.36 5 -1 5 C-0.67 3.35 -0.34 1.7 0 0 Z " fill="#262626" transform="translate(756,126)"/>
</svg>
